<svg id="Layer_1" data-name="Layer 1" xmlns="http://www.w3.org/2000/svg" viewBox="0 0 228.08 249.42"><defs><style>.cls-1{fill:#fff;}.cls-1,.cls-2,.cls-3,.cls-4{stroke:#000;stroke-miterlimit:10;}.cls-3,.cls-4{fill:none;}.cls-3{stroke-width:0.25px;}</style></defs><title>La_2017</title><path class="cls-1" d="M40.9,94.24" transform="translate(-95.68 -62.89)"/><path class="cls-1" d="M113.69,87.44" transform="translate(-95.68 -62.89)"/><path class="cls-2" d="M153.83,63.63,96.69,71.8l30.61,33.33v-19Z" transform="translate(-95.68 -62.89)"/><path class="cls-1" d="M132.74,90.16" transform="translate(-95.68 -62.89)"/><path d="M133.42,206.49V88.8L162,63.63V185.4q46.95-33,93.88-66v34.7L164,216H133.42Z" transform="translate(-95.68 -62.89)"/><path d="M133.8,206.49V90.8a6.84,6.84,0,0,1,0-1.5c1-3.82-.18-.09-.11-.24s.23-.17.3-.26a13.34,13.34,0,0,1,1.69-1.49L150.3,74.43l12-10.53-.64-.27v116.8a33,33,0,0,0,0,4.77,1.33,1.33,0,0,1,0,.2.38.38,0,0,0,.56.33l73.06-51.36,20.82-14.63-.56-.33v31.23c0,.88.35,2.71-.23,3.42a10.6,10.6,0,0,1-2.07,1.4l-2.48,1.67-5,3.35-38.06,25.65-38.47,25.93c-1.51,1-3.08,2-4.55,3.07-.52.39-.48.43-.95.51a16.56,16.56,0,0,1-2.44,0H133.42l.38.37v-9.52a.38.38,0,0,0-.75,0V216a.38.38,0,0,0,.37.38h29.7a2.56,2.56,0,0,0,1.93-.61l77.77-52.42L254,155.83a8.85,8.85,0,0,0,2.15-1.46c.35-.5.11-1.65.11-2.24V119.41a.38.38,0,0,0-.57-.32l-73.06,51.36L161.8,185.08l.57.32V68.61a34.52,34.52,0,0,0,0-4.77,1.47,1.47,0,0,1,0-.21.38.38,0,0,0-.64-.26L136.15,85.9,134,87.83a4.15,4.15,0,0,0-.8.71c-.23.35-.11.85-.11,1.26V206.49A.38.38,0,0,0,133.8,206.49Z" transform="translate(-95.68 -62.89)"/><path class="cls-3" d="M272.88,150.71" transform="translate(-95.68 -62.89)"/><path class="cls-3" d="M160,333" transform="translate(-95.68 -62.89)"/><path class="cls-3" d="M90.56,207.85" transform="translate(-95.68 -62.89)"/><path class="cls-2" d="M166.07,150.71v25.17l28.58-19.73L171.52,165Z" transform="translate(-95.68 -62.89)"/><path class="cls-3" d="M325.94,146.63" transform="translate(-95.68 -62.89)"/><path class="cls-2" d="M260.63,119.41v34l23.81.68Q272.54,136.76,260.63,119.41Z" transform="translate(-95.68 -62.89)"/><path class="cls-2" d="M265.59,311.57l57.16-8.05L292.2,270.13l0,19.05Z" transform="translate(-95.68 -62.89)"/><path d="M286.28,168.76l-.23,117.68-28.62,25.12.24-121.77-94,65.8.07-34.69,92-61.73,30.61.06Z" transform="translate(-95.68 -62.89)"/><path d="M285.91,168.76,285.73,259l-.05,22.69v2.74a6.74,6.74,0,0,1,0,1.49c-1,3.8.18.09.11.24s-.23.18-.3.27a12.71,12.71,0,0,1-1.7,1.48l-14.64,12.85-12,10.51.64.27,0-12.16.05-29.06.07-35.13.06-30.47,0-10a31.65,31.65,0,0,0,0-4.77,1.33,1.33,0,0,1,0-.2.38.38,0,0,0-.56-.33l-73.16,51.22-20.85,14.59.57.32,0-23.29v-7.93c0-.89-.35-2.71.23-3.43a11,11,0,0,1,2.07-1.39l2.49-1.67,5-3.33L212,189l38.52-25.86c1.52-1,3.09-2,4.56-3.06.52-.38.48-.43.95-.5a16.56,16.56,0,0,1,2.44,0l9.58,0,18.28,0-.38-.38v9.53a.38.38,0,0,0,.75,0v-9.53a.38.38,0,0,0-.37-.37l-15.81,0-10.57,0H256.6a2.55,2.55,0,0,0-1.93.6l-77.88,52.28-11.18,7.5a9.11,9.11,0,0,0-2.15,1.45c-.35.5-.11,1.66-.11,2.25v6.44l-.05,26.27a.37.37,0,0,0,.56.32L237,204.7l20.85-14.59-.57-.32,0,12.15L257.21,231l-.07,35.14-.06,30.47,0,10a34.52,34.52,0,0,0,0,4.77,1.47,1.47,0,0,1,0,.21.38.38,0,0,0,.64.26l25.62-22.48,2.2-1.92a4.52,4.52,0,0,0,.8-.71c.23-.36.11-.86.12-1.26V277l0-11.47.09-45.38.11-51.36A.38.38,0,0,0,285.91,168.76Z" transform="translate(-95.68 -62.89)"/><path class="cls-2" d="M253.52,224.47l0-25.17L225,219l23.14-8.8Q250.82,217.32,253.52,224.47Z" transform="translate(-95.68 -62.89)"/><path class="cls-2" d="M159.58,256.26,159,221.57l-24.19-.79Q147.19,238.51,159.58,256.26Z" transform="translate(-95.68 -62.89)"/><path class="cls-4" d="M335.46,108.53" transform="translate(-95.68 -62.89)"/><path class="cls-4" d="M366.07,183.36" transform="translate(-95.68 -62.89)"/><path class="cls-4" d="M376.28,148.67" transform="translate(-95.68 -62.89)"/><path class="cls-4" d="M298.73,126.9" transform="translate(-95.68 -62.89)"/><path class="cls-2" d="M264,142.54" transform="translate(-95.68 -62.89)"/><path class="cls-2" d="M334.78,150" transform="translate(-95.68 -62.89)"/><path class="cls-2" d="M77,227.58" transform="translate(-95.68 -62.89)"/></svg>